<?xml version="1.0" encoding="utf-8"?>
<svg version="1.1" id="_x32_" xmlns="http://www.w3.org/2000/svg" xmlns:xlink="http://www.w3.org/1999/xlink"
	 viewBox="0 0 512 512"  xml:space="preserve">

<g>
	<rect x="198.745" y="132.052" class="st0" width="114.525" height="19.086"/>
	<circle class="st0" cx="333.426" cy="360.055" r="17.536"/>
	<path class="st0" d="M181.372,453.416l-25.94,38.064c30.87,13.202,64.864,20.52,100.563,20.52c35.366,0,69.042-7.171,99.679-20.132
		l-25.024-38.452H181.372z"/>
	<path class="st0" d="M164.278,193.745v63.445c0,8.295,6.73,15.031,15.032,15.031h153.402c8.303,0,15.032-6.736,15.032-15.031
		v-63.445c0-8.295-6.728-15.031-15.032-15.031H179.311C171.008,178.714,164.278,185.45,164.278,193.745z"/>
	<path class="st0" d="M255.996,0C114.61,0,0,114.61,0,255.996c0,94.671,51.382,177.318,127.773,221.615l41.164-61.135
		c-26.404-4.589-46.545-27.668-46.545-55.359V168.496c0-36.528,29.598-66.134,66.127-66.134h134.975
		c36.521,0,66.136,29.606,66.136,66.134v192.622c0,27.692-20.141,50.762-46.545,55.359l40.343,61.6
		C460.269,433.896,512,350.993,512,255.996C512,114.61,397.383,0,255.996,0z"/>
	<path class="st0" d="M178.597,377.591c9.675,0,17.528-7.854,17.528-17.536s-7.852-17.536-17.528-17.536
		c-9.69,0-17.536,7.854-17.536,17.536S168.907,377.591,178.597,377.591z"/>
	<polygon class="st0" points="205.249,417.322 192.442,436.686 319.58,436.686 306.774,417.322 	"/>
</g>
</svg>
